<svg xmlns="http://www.w3.org/2000/svg" width="256" height="256" viewBox="0 0 100 100"><rect width="100" height="100" rx="20" fill="#614cf5"></rect><path d="M42.76 70.74L39.39 60.76L19.29 60.76Q18.76 62.26 18.16 64.02Q17.56 65.79 17 67.47Q16.44 69.16 15.91 70.63Q15.39 72.09 15.09 73.06L15.09 73.06Q14.04 73.51 12.61 73.51L12.61 73.51Q11.41 73.51 10.48 72.88Q9.54 72.24 9.54 70.81L9.54 70.81Q9.54 70.14 9.76 69.42Q9.99 68.71 10.29 67.89L10.29 67.89Q11.41 64.74 13.18 59.79Q14.94 54.84 17 49.25Q19.06 43.66 21.20 38.00Q23.34 32.34 25.14 27.84L25.14 27.84Q25.74 27.54 26.94 27.24Q28.14 26.94 29.41 26.94L29.41 26.94Q30.91 26.94 32.30 27.39Q33.69 27.84 34.06 28.89L34.06 28.89Q35.86 33.24 37.92 38.82Q39.99 44.41 42.09 50.26Q44.19 56.11 46.10 61.77Q48.01 67.44 49.51 72.01L49.51 72.01Q48.91 72.69 48.09 73.10Q47.26 73.51 46.21 73.51L46.21 73.51Q44.79 73.51 44.04 72.88Q43.29 72.24 42.76 70.74L42.76 70.74ZM29.64 32.04L29.34 32.04Q28.51 34.29 27.46 37.17Q26.41 40.06 25.29 43.21Q24.16 46.36 23.04 49.59Q21.91 52.81 20.94 55.74L20.94 55.74L37.81 55.74Q36.69 52.36 35.49 48.95Q34.29 45.54 33.20 42.39Q32.11 39.24 31.18 36.57Q30.24 33.91 29.64 32.04L29.64 32.04ZM72.09 56.64L64.51 56.64L64.51 72.76Q64.06 72.91 63.31 73.10Q62.56 73.29 61.66 73.29L61.66 73.29Q58.36 73.29 58.36 70.51L58.36 70.51L58.36 30.61Q58.36 29.41 58.96 28.77Q59.56 28.14 60.84 27.76L60.84 27.76Q63.01 27.09 66.13 26.79Q69.24 26.49 72.16 26.49L72.16 26.49Q81.69 26.49 86.07 30.50Q90.46 34.51 90.46 41.34L90.46 41.34Q90.46 48.31 85.96 52.47Q81.46 56.64 72.09 56.64L72.09 56.64ZM64.44 51.54L71.71 51.54Q77.71 51.54 81.01 49.06Q84.31 46.59 84.31 41.41L84.31 41.41Q84.31 36.31 81.13 33.95Q77.94 31.59 72.01 31.59L72.01 31.59Q69.99 31.59 68 31.77Q66.01 31.96 64.44 32.26L64.44 32.26L64.44 51.54Z" fill="#fff"></path></svg>